<svg id="enwr37n9ucd1" xmlns="http://www.w3.org/2000/svg" xmlns:xlink="http://www.w3.org/1999/xlink" viewBox="0 0 712 712" shape-rendering="geometricPrecision" text-rendering="geometricPrecision"><style><![CDATA[#enwr37n9ucd5_to {animation: enwr37n9ucd5_to__to 2000ms linear infinite normal forwards}@keyframes enwr37n9ucd5_to__to { 0% {transform: translate(160px,305.998840px);animation-timing-function: cubic-bezier(0.445000,0.050000,0.550000,0.950000)} 50% {transform: translate(160px,330.998840px)} 100% {transform: translate(160px,305.998840px)} }#enwr37n9ucd8_to {animation: enwr37n9ucd8_to__to 2000ms linear infinite normal forwards}@keyframes enwr37n9ucd8_to__to { 0% {transform: translate(501px,445.002670px);animation-timing-function: cubic-bezier(0.645000,0.045000,0.355000,1)} 50% {transform: translate(501px,420.002670px);animation-timing-function: cubic-bezier(0.445000,0.050000,0.550000,0.950000)} 100% {transform: translate(501px,445.002670px)} }]]></style><g id="enwr37n9ucd2"><g id="enwr37n9ucd3"><g id="enwr37n9ucd4"><g id="enwr37n9ucd5_to" transform="translate(160,305.998840)"><path id="enwr37n9ucd5" d="M309.300000,206.470000C282.260000,186.650000,254.510000,162.220000,234.770000,132.610000L217.480000,106.680000C213.820000,101.180000,206.990000,98.740000,200.650000,100.640000C194.320000,102.560000,190,108.390000,190,115L190,350.340000C181.140000,345.170000,170.980000,342,160,342C126.910000,342,100,368.910000,100,402C100,435.090000,126.910000,462,160,462C193.090000,462,220,435.090000,220,402L220,164.250000C241.200000,191.040000,267.710000,213.180000,291.560000,230.670000C303.280000,239.250000,310,252.500000,310,267C310,291.810000,289.810000,312,265,312C256.710000,312,250,318.710000,250,327C250,335.290000,256.710000,342,265,342C306.350000,342,340,308.350000,340,267C340,243.190000,328.530000,220.580000,309.300000,206.470000Z" transform="translate(-220,-281.001022)" fill="rgb(0,0,0)" stroke="none" stroke-width="1"/></g></g></g><g id="enwr37n9ucd6"><g id="enwr37n9ucd7"><g id="enwr37n9ucd8_to" transform="translate(501,445.002670)"><path id="enwr37n9ucd8" d="M592.880000,222.570000L380.880000,282.570000C374.440000,284.420000,370,290.300000,370,297L370,500.340000C361.140000,495.180000,350.980000,492,340,492C306.910000,492,280,518.910000,280,552C280,585.090000,306.910000,612,340,612C373.090000,612,400,585.090000,400,552C400,548.580000,400,368.320000,400,368.320000L582,316.890000L582,440.340000C573.140000,435.180000,562.980000,432,552,432C518.910000,432,492,458.910000,492,492C492,525.090000,518.910000,552,552,552C585.090000,552,612,525.090000,612,492C612,488.580000,612,237,612,237C612,227.080000,602.510000,219.850000,592.880000,222.570000Z" transform="scale(1,0.830000) translate(-446,-416.996124)" fill="rgb(0,0,0)" stroke="none" stroke-width="1"/></g></g></g></g></svg>